<svg xmlns="http://www.w3.org/2000/svg" width="1.2em" height="1.2em" viewBox="0 0 24 24">
	<rect width="24" height="24" fill="none" />
	<path fill="black" d="M14.113 17.116q.416 0 .709-.291q.294-.292.294-.707q0-.416-.292-.71q-.29-.292-.706-.292t-.71.29t-.292.707q0 .416.29.709q.291.294.707.294m-4.663.122l5.789-5.788l-.689-.708l-5.808 5.808zm.432-4.354q.416 0 .71-.29t.293-.707t-.291-.709t-.707-.294t-.709.291t-.294.707t.292.71q.29.292.706.292M11.997 21q-2.999 0-4.998-2.064T5 13.8q0-2.154 1.738-4.765T12 3.308q3.525 3.117 5.262 5.728Q19 11.646 19 13.8q0 3.073-2.002 5.137Q14.994 21 11.996 21M12 20q2.6 0 4.3-1.763T18 13.8q0-1.825-1.513-4.125T12 4.65Q9.025 7.375 7.513 9.675T6 13.8q0 2.675 1.7 4.438T12 20m0-7.846" />
</svg>